<svg width="55" height="24" viewBox="0 0 55 24" fill="none" xmlns="http://www.w3.org/2000/svg">
<path d="M54 23.5H10L1 12L10 0.5H54V23.5Z" fill="#383838" stroke="#383838"/>
<path d="M37.5 24H33V0H37.5L37.5 24Z" fill="url(#paint0_linear_673_10189)"/>
<path d="M26.5 24H22V0H26.5L26.5 24Z" fill="url(#paint1_linear_673_10189)"/>
<path d="M54 23.5H50.5L52.5 12L50.5 0.5H54V23.5Z" fill="url(#paint2_linear_673_10189)" stroke="url(#paint3_linear_673_10189)"/>
<path d="M1 12L10 0.5H11.5L8.5 12L12 23.5H10L1 12Z" fill="url(#paint4_linear_673_10189)" stroke="url(#paint5_linear_673_10189)"/>
<defs>
<linearGradient id="paint0_linear_673_10189" x1="35.25" y1="0" x2="35.25" y2="24" gradientUnits="userSpaceOnUse">
<stop stop-color="#EFEFEF"/>
<stop offset="1" stop-color="#B8B8B8"/>
</linearGradient>
<linearGradient id="paint1_linear_673_10189" x1="24.25" y1="0" x2="24.25" y2="24" gradientUnits="userSpaceOnUse">
<stop stop-color="#EFEFEF"/>
<stop offset="1" stop-color="#B8B8B8"/>
</linearGradient>
<linearGradient id="paint2_linear_673_10189" x1="52.25" y1="0.5" x2="52.25" y2="23.5" gradientUnits="userSpaceOnUse">
<stop stop-color="#EFEFEF"/>
<stop offset="1" stop-color="#B8B8B8"/>
</linearGradient>
<linearGradient id="paint3_linear_673_10189" x1="52.25" y1="0.5" x2="52.25" y2="23.5" gradientUnits="userSpaceOnUse">
<stop stop-color="#EFEFEF"/>
<stop offset="1" stop-color="#B8B8B8"/>
</linearGradient>
<linearGradient id="paint4_linear_673_10189" x1="6.5" y1="0.5" x2="6.49999" y2="23.5" gradientUnits="userSpaceOnUse">
<stop stop-color="#EFEFEF"/>
<stop offset="1" stop-color="#B8B8B8"/>
</linearGradient>
<linearGradient id="paint5_linear_673_10189" x1="6.5" y1="0.5" x2="6.49999" y2="23.5" gradientUnits="userSpaceOnUse">
<stop stop-color="#EFEFEF"/>
<stop offset="1" stop-color="#B8B8B8"/>
</linearGradient>
</defs>
</svg>
