<svg width="26" height="26" viewBox="0 0 26 26" fill="none" xmlns="http://www.w3.org/2000/svg">
<path d="M6.72255 23.7234V25H13.3608V16.5745H12.8502C12.1202 16.598 11.7009 16.5149 10.9353 16.1915C9.90067 15.6647 9.43867 15.2628 8.7651 14.4043C8.26341 13.5562 8.07397 13.0227 7.87148 11.9787V2.2766H13.6162V1H6.72255V12.3617C5.98241 12.225 5.53591 12.0676 4.67999 11.5957C4.0837 11.191 3.74902 10.851 3.14808 10.0638C2.5607 9.2955 2.39453 8.74118 2.25446 7.6383V5.08511H6.70103V3.93617H2.63744C1.78521 4.19739 1.39923 4.46736 1.10553 5.46809C0.954616 6.47278 0.975418 7.16822 1.10553 8.53192C1.48157 10.0006 1.89984 10.7109 2.89276 11.8511C4.29375 12.9908 5.20352 13.3472 6.97787 13.6383C7.60684 15.0753 8.12207 15.7383 9.27574 16.7021C10.396 17.4064 11.0734 17.6467 12.3396 17.8932V23.7234H6.72255Z" fill="#2F662E" stroke="#2F662E" stroke-width="0.5"/>
<path d="M19.1055 23.7234V25H12.4672V16.5745H12.9779C13.7079 16.598 14.1271 16.5149 14.8928 16.1915C15.9274 15.6647 16.3894 15.2628 17.063 14.4043C17.5647 13.5562 17.7541 13.0227 17.9566 11.9787V2.2766H12.2119V1H19.1055V12.3617C19.8456 12.225 20.2922 12.0676 21.1481 11.5957C21.7444 11.191 22.079 10.851 22.68 10.0638C23.2674 9.2955 23.4335 8.74118 23.5736 7.6383V5.08511H19.1246V3.93617H23.1906C24.0429 4.19739 24.4288 4.46736 24.7225 5.46809C24.8734 6.47278 24.8526 7.16822 24.7225 8.53192C24.3465 10.0006 23.9282 10.7109 22.9353 11.8511C21.5343 12.9908 20.6245 13.3472 18.8502 13.6383C18.2212 15.0753 17.706 15.7383 16.5523 16.7021C15.4321 17.4064 14.7547 17.6467 13.4885 17.8932V23.7234H19.1055Z" fill="#2F662E" stroke="#2F662E" stroke-width="0.5"/>
</svg>
