<svg width="24" height="24" viewBox="0 0 24 24" fill="none" xmlns="http://www.w3.org/2000/svg">
<path d="M2.04706 22.4118H15.3529V15.3529H22.4118V2.04706C22.4118 1.90588 22.3706 1.79412 22.2882 1.71176C22.2059 1.62941 22.0941 1.58824 21.9529 1.58824H2.04706C1.90588 1.58824 1.79412 1.62941 1.71176 1.71176C1.62941 1.79412 1.58824 1.90588 1.58824 2.04706V21.9529C1.58824 22.0941 1.62941 22.2059 1.71176 22.2882C1.79412 22.3706 1.90588 22.4118 2.04706 22.4118ZM2.04706 24C1.48235 24 1 23.8 0.6 23.4C0.2 23 0 22.5176 0 21.9529V2.04706C0 1.48235 0.2 1 0.6 0.6C1 0.2 1.48235 0 2.04706 0H21.9529C22.5176 0 23 0.2 23.4 0.6C23.8 1 24 1.48235 24 2.04706V15.7412L15.7412 24H2.04706ZM6.07059 13.9412V12.3176H11.7529V13.9412H6.07059ZM6.07059 8.29412V6.70588H17.9294V8.29412H6.07059ZM1.58824 22.4118V15.3529V2.04706C1.58824 1.90588 1.58824 1.79412 1.58824 1.71176C1.58824 1.62941 1.58824 1.58824 1.58824 1.58824C1.58824 1.58824 1.58824 1.62941 1.58824 1.71176C1.58824 1.79412 1.58824 1.90588 1.58824 2.04706V21.9529C1.58824 22.0941 1.58824 22.2059 1.58824 22.2882C1.58824 22.3706 1.58824 22.4118 1.58824 22.4118Z" fill="#2F662E"/>
</svg>
