<svg width="24" height="24" viewBox="0 0 24 24" fill="none" xmlns="http://www.w3.org/2000/svg">
<path d="M9.46524 24L8.8877 20.2105C8.4385 20.0632 7.96257 19.8474 7.45989 19.5632C6.95722 19.2789 6.52406 18.9789 6.16043 18.6632L2.56684 20.2737L0 15.8211L3.24064 13.4526C3.19786 13.2421 3.16577 13.0053 3.14438 12.7421C3.12299 12.4789 3.1123 12.2316 3.1123 12C3.1123 11.7895 3.12299 11.5526 3.14438 11.2895C3.16577 11.0263 3.19786 10.7789 3.24064 10.5474L0 8.17895L2.56684 3.75789L6.12834 5.33684C6.51337 5.02105 6.95187 4.72632 7.44385 4.45263C7.93583 4.17895 8.40642 3.96842 8.85561 3.82105L9.46524 0H14.5348L15.1123 3.82105C15.5829 3.98947 16.0588 4.2 16.5401 4.45263C17.0214 4.70526 17.4438 5 17.8075 5.33684L21.4652 3.75789L24 8.17895L20.7273 10.5158C20.7701 10.7684 20.8021 11.0211 20.8235 11.2737C20.8449 11.5263 20.8556 11.7684 20.8556 12C20.8556 12.2105 20.8449 12.4421 20.8235 12.6947C20.8021 12.9474 20.7701 13.2105 20.7273 13.4842L24 15.8211L21.4332 20.2737L17.8075 18.6632C17.4225 18.9789 16.9947 19.2789 16.5241 19.5632C16.0535 19.8474 15.5829 20.0526 15.1123 20.1789L14.5348 24H9.46524ZM11.9679 15.5684C12.9733 15.5684 13.8289 15.2211 14.5348 14.5263C15.2406 13.8316 15.5936 12.9895 15.5936 12C15.5936 11.0105 15.2406 10.1684 14.5348 9.47368C13.8289 8.77895 12.9733 8.43158 11.9679 8.43158C10.9626 8.43158 10.107 8.77895 9.40107 9.47368C8.69519 10.1684 8.34224 11.0105 8.34224 12C8.34224 12.9895 8.69519 13.8316 9.40107 14.5263C10.107 15.2211 10.9626 15.5684 11.9679 15.5684ZM11.9679 14.1158C11.369 14.1158 10.861 13.9105 10.4439 13.5C10.0267 13.0895 9.81818 12.5895 9.81818 12C9.81818 11.4105 10.0267 10.9105 10.4439 10.5C10.861 10.0895 11.369 9.88421 11.9679 9.88421C12.5668 9.88421 13.0749 10.0895 13.492 10.5C13.9091 10.9105 14.1176 11.4105 14.1176 12C14.1176 12.5895 13.9091 13.0895 13.492 13.5C13.0749 13.9105 12.5668 14.1158 11.9679 14.1158ZM10.6203 22.5789H13.3476L13.8289 19.0421C14.5134 18.8737 15.1497 18.6211 15.738 18.2842C16.3262 17.9474 16.8877 17.5263 17.4225 17.0211L20.7594 18.4421L22.0428 16.2L19.0909 14.0526C19.1765 13.6737 19.246 13.3211 19.2995 12.9947C19.3529 12.6684 19.3797 12.3368 19.3797 12C19.3797 11.6421 19.3583 11.3053 19.3155 10.9895C19.2727 10.6737 19.1979 10.3368 19.0909 9.97895L22.0749 7.8L20.7914 5.55789L17.4225 6.97895C16.9733 6.47368 16.4278 6.03158 15.7861 5.65263C15.1444 5.27368 14.4813 5.04211 13.7968 4.95789L13.3797 1.42105H10.6203L10.2032 4.95789C9.49733 5.08421 8.84492 5.31579 8.24599 5.65263C7.64706 5.98947 7.09091 6.43158 6.57754 6.97895L3.20856 5.55789L1.92513 7.8L4.877 9.94737C4.79144 10.2632 4.72192 10.5947 4.66845 10.9421C4.61497 11.2895 4.58823 11.6421 4.58823 12C4.58823 12.3579 4.61497 12.7053 4.66845 13.0421C4.72192 13.3789 4.79144 13.7158 4.877 14.0526L1.92513 16.2L3.20856 18.4421L6.54545 17.0211C7.05882 17.5474 7.62032 17.9737 8.22995 18.3C8.83957 18.6263 9.49733 18.8737 10.2032 19.0421L10.6203 22.5789Z" fill="#242424"/>
</svg>
