<svg width="24" height="24" viewBox="0 0 24 24" fill="none" xmlns="http://www.w3.org/2000/svg">
<path d="M12 11.193C10.4533 11.193 9.18 10.6886 8.18 9.67983C7.18 8.67105 6.68 7.38655 6.68 5.82632C6.68 4.26608 7.18 2.9883 8.18 1.99298C9.18 0.99766 10.4533 0.5 12 0.5C13.5467 0.5 14.82 0.99766 15.82 1.99298C16.82 2.9883 17.32 4.26608 17.32 5.82632C17.32 7.38655 16.82 8.67105 15.82 9.67983C14.82 10.6886 13.5467 11.193 12 11.193ZM0 23.5V20.4333C0 19.5725 0.226667 18.8193 0.68 18.1737C1.13333 17.5281 1.72 17.0304 2.44 16.6807C4.14667 15.9275 5.78 15.3626 7.34 14.986C8.9 14.6094 10.4533 14.4211 12 14.4211C13.5467 14.4211 15.1 14.6161 16.66 15.0061C18.22 15.3962 19.84 15.9678 21.52 16.7211C22.2667 17.0708 22.8667 17.5617 23.32 18.1939C23.7733 18.826 24 19.5725 24 20.4333V23.5H0ZM1.8 21.6842H22.2V20.4333C22.2 20.0298 22.0667 19.633 21.8 19.243C21.5333 18.8529 21.1867 18.5503 20.76 18.3351C19.1867 17.555 17.7 17.0102 16.3 16.7009C14.9 16.3915 13.4667 16.2368 12 16.2368C10.5333 16.2368 9.08667 16.3915 7.66 16.7009C6.23333 17.0102 4.74667 17.555 3.2 18.3351C2.8 18.5503 2.46667 18.8529 2.2 19.243C1.93333 19.633 1.8 20.0298 1.8 20.4333V21.6842ZM12 9.37719C12.9867 9.37719 13.8133 9.04094 14.48 8.36842C15.1467 7.69591 15.48 6.84854 15.48 5.82632C15.48 4.831 15.1467 3.99708 14.48 3.32456C13.8133 2.65205 12.9867 2.31579 12 2.31579C11.0133 2.31579 10.1867 2.65205 9.52 3.32456C8.85333 3.99708 8.52 4.831 8.52 5.82632C8.52 6.84854 8.85333 7.69591 9.52 8.36842C10.1867 9.04094 11.0133 9.37719 12 9.37719Z" fill="#242424"/>
</svg>
