<svg width="42" height="33" viewBox="0 0 42 33" fill="none" xmlns="http://www.w3.org/2000/svg">
<path d="M16.7835 31.6737C16.0683 31.7781 15.3126 31.6837 14.5288 31.2228L14.5344 31.2174C15.3496 30.4377 15.8079 29.9994 16.3326 29.87C16.8101 29.8135 17.5001 30.0263 18.5873 30.3209C17.773 31.1528 17.3476 31.5272 16.7835 31.6737Z" fill="url(#paint0_linear_542_1923)" stroke="url(#paint1_linear_542_1923)"/>
<path d="M25.3515 31.6737C26.0667 31.7781 26.8224 31.6837 27.6062 31.2228L27.6006 31.2174C26.7854 30.4377 26.3271 29.9994 25.8024 29.87C25.3249 29.8135 24.6349 30.0263 23.5477 30.3209C24.362 31.1528 24.7874 31.5272 25.3515 31.6737Z" fill="url(#paint2_linear_542_1923)" stroke="url(#paint3_linear_542_1923)"/>
<path d="M14.7871 27.3083C14.3391 26.7411 14.043 26.0395 14.0502 25.1302L14.0577 25.1324C15.1405 25.4485 15.7493 25.6262 16.1237 26.0159C16.4114 26.4012 16.5721 27.1052 16.8606 28.194C15.733 27.9048 15.196 27.7235 14.7871 27.3083Z" fill="url(#paint4_linear_542_1923)" stroke="url(#paint5_linear_542_1923)"/>
<path d="M27.3478 27.3083C27.7958 26.7411 28.0919 26.0395 28.0846 25.1302L28.0772 25.1324C26.9943 25.4485 26.3856 25.6262 26.0112 26.0159C25.7235 26.4012 25.5627 27.1052 25.2743 28.194C26.4019 27.9048 26.9389 27.7235 27.3478 27.3083Z" fill="url(#paint6_linear_542_1923)" stroke="url(#paint7_linear_542_1923)"/>
<path d="M10.6398 25.2926C10.3539 24.6288 10.2495 23.8744 10.4918 22.998L10.4985 23.0021C11.4626 23.5877 12.0046 23.9169 12.2654 24.3902C12.4436 24.8368 12.4166 25.5584 12.4134 26.6848C11.3991 26.1136 10.9273 25.7995 10.6398 25.2926Z" fill="url(#paint8_linear_542_1923)" stroke="url(#paint9_linear_542_1923)"/>
<path d="M31.4954 25.2926C31.7814 24.6288 31.8858 23.8744 31.6434 22.998L31.6368 23.0021C30.6727 23.5877 30.1306 23.9169 29.8698 24.3902C29.6917 24.8368 29.7186 25.5584 29.7218 26.6848C30.7361 26.1136 31.2079 25.7995 31.4954 25.2926Z" fill="url(#paint10_linear_542_1923)" stroke="url(#paint11_linear_542_1923)"/>
<path d="M7.35201 22.1947C7.24762 21.4795 7.34202 20.7238 7.80295 19.9399L7.80834 19.9456C8.58803 20.7608 9.02639 21.2191 9.1558 21.7437C9.21228 22.2213 8.9995 22.9113 8.70485 23.9985C7.87298 23.1842 7.49853 22.7587 7.35201 22.1947Z" fill="url(#paint12_linear_542_1923)" stroke="url(#paint13_linear_542_1923)"/>
<path d="M34.783 22.1947C34.8874 21.4795 34.793 20.7238 34.3321 19.9399L34.3267 19.9456C33.547 20.7608 33.1086 21.2191 32.9792 21.7437C32.9227 22.2213 33.1355 22.9113 33.4302 23.9985C34.262 23.1842 34.6365 22.7587 34.783 22.1947Z" fill="url(#paint14_linear_542_1923)" stroke="url(#paint15_linear_542_1923)"/>
<path d="M5.42982 17.6184C5.5141 16.9005 5.80087 16.195 6.44897 15.5572L6.45271 15.564C6.99486 16.5532 7.29966 17.1094 7.28886 17.6496C7.21983 18.1255 6.83571 18.7369 6.26971 19.7108C5.67694 18.709 5.42537 18.2011 5.42982 17.6184Z" fill="url(#paint16_linear_542_1923)" stroke="url(#paint17_linear_542_1923)"/>
<path d="M36.7052 17.6184C36.6209 16.9005 36.3341 16.195 35.686 15.5572L35.6823 15.564C35.1402 16.5532 34.8354 17.1094 34.8461 17.6496C34.9152 18.1255 35.2993 18.7369 35.8653 19.7108C36.4581 18.709 36.7096 18.2011 36.7052 17.6184Z" fill="url(#paint18_linear_542_1923)" stroke="url(#paint19_linear_542_1923)"/>
<path d="M4.64074 12.8929C4.90794 12.2213 5.36755 11.614 6.15864 11.1657L6.16049 11.1733C6.42813 12.2691 6.5786 12.8852 6.42834 13.4042C6.2385 13.846 5.70921 14.3372 4.91044 15.1314C4.59717 14.0103 4.48561 13.4546 4.64074 12.8929Z" fill="url(#paint20_linear_542_1923)" stroke="url(#paint21_linear_542_1923)"/>
<path d="M37.4941 12.8929C37.2269 12.2213 36.7673 11.614 35.9762 11.1657L35.9744 11.1733C35.7068 12.2691 35.5563 12.8852 35.7065 13.4042C35.8964 13.846 36.4257 14.3372 37.2244 15.1314C37.5377 14.0103 37.6493 13.4546 37.4941 12.8929Z" fill="url(#paint22_linear_542_1923)" stroke="url(#paint23_linear_542_1923)"/>
<path d="M5.47481 7.44523C5.90673 6.86569 6.50784 6.39808 7.38802 6.16976L7.38785 6.17754C7.36275 7.3053 7.34864 7.93934 7.06915 8.40184C6.77143 8.77944 6.13306 9.11689 5.15594 9.67731C5.14352 8.51329 5.17959 7.94767 5.47481 7.44523Z" fill="url(#paint24_linear_542_1923)" stroke="url(#paint25_linear_542_1923)"/>
<path d="M36.6601 7.44523C36.2282 6.86569 35.627 6.39808 34.7469 6.16976L34.747 6.17754C34.7721 7.3053 34.7862 7.93934 35.0657 8.40184C35.3635 8.77944 36.0018 9.11689 36.9789 9.67731C36.9914 8.51329 36.9553 7.94767 36.6601 7.44523Z" fill="url(#paint26_linear_542_1923)" stroke="url(#paint27_linear_542_1923)"/>
<path d="M12.2071 30.3913C11.4893 30.3071 10.7837 30.0203 10.1459 29.3722L10.1527 29.3685C11.142 28.8263 11.6981 28.5215 12.2384 28.5323C12.7143 28.6013 13.3257 28.9855 14.2996 29.5515C13.2977 30.1442 12.7898 30.3958 12.2071 30.3913Z" fill="url(#paint28_linear_542_1923)" stroke="url(#paint29_linear_542_1923)"/>
<path d="M29.9278 30.3913C30.6456 30.3071 31.3512 30.0203 31.989 29.3722L31.9821 29.3685C30.9929 28.8263 30.4368 28.5215 29.8965 28.5323C29.4206 28.6013 28.8092 28.9855 27.8353 29.5515C28.8372 30.1442 29.345 30.3958 29.9278 30.3913Z" fill="url(#paint30_linear_542_1923)" stroke="url(#paint31_linear_542_1923)"/>
<path d="M8.38361 28.0485C7.71203 27.7813 7.10477 27.3217 6.65642 26.5306L6.66398 26.5287C7.75981 26.2611 8.3759 26.1106 8.89497 26.2609C9.33677 26.4507 9.82794 26.98 10.6222 27.7788C9.50101 28.092 8.94534 28.2036 8.38361 28.0485Z" fill="url(#paint32_linear_542_1923)" stroke="url(#paint33_linear_542_1923)"/>
<path d="M33.7513 28.0485C34.4229 27.7813 35.0301 27.3217 35.4785 26.5306L35.4709 26.5287C34.3751 26.2611 33.759 26.1106 33.2399 26.2609C32.7981 26.4507 32.307 26.98 31.5127 27.7788C32.6339 28.092 33.1896 28.2036 33.7513 28.0485Z" fill="url(#paint34_linear_542_1923)" stroke="url(#paint35_linear_542_1923)"/>
<path d="M5.32731 24.6199C4.74777 24.188 4.28016 23.5869 4.05184 22.7067L4.05962 22.7069C5.18738 22.732 5.82142 22.7461 6.28392 23.0256C6.66152 23.3233 6.99897 23.9617 7.55939 24.9388C6.39537 24.9512 5.82975 24.9151 5.32731 24.6199Z" fill="url(#paint36_linear_542_1923)" stroke="url(#paint37_linear_542_1923)"/>
<path d="M36.8077 24.6199C37.3872 24.188 37.8549 23.5869 38.0832 22.7067L38.0754 22.7069C36.9476 22.732 36.3136 22.7461 35.8511 23.0256C35.4735 23.3233 35.136 23.9617 34.5756 24.9388C35.7396 24.9512 36.3053 24.9151 36.8077 24.6199Z" fill="url(#paint38_linear_542_1923)" stroke="url(#paint39_linear_542_1923)"/>
<path d="M3.06259 20.093C2.61459 19.5258 2.31849 18.8241 2.32575 17.9149L2.33323 17.917C3.41606 18.2332 4.02485 18.4109 4.39925 18.8006C4.68693 19.1859 4.84765 19.8898 5.13608 20.9787C4.00851 20.6894 3.4715 20.5082 3.06259 20.093Z" fill="url(#paint40_linear_542_1923)" stroke="url(#paint41_linear_542_1923)"/>
<path d="M39.0724 20.093C39.5204 19.5258 39.8165 18.8241 39.8093 17.9149L39.8018 17.917C38.7189 18.2332 38.1102 18.4109 37.7358 18.8006C37.4481 19.1859 37.2874 19.8898 36.9989 20.9787C38.1265 20.6894 38.6635 20.5082 39.0724 20.093Z" fill="url(#paint42_linear_542_1923)" stroke="url(#paint43_linear_542_1923)"/>
<path d="M1.62076 15.3717C1.33482 14.7079 1.23042 13.9535 1.47278 13.0771L1.47943 13.0812C2.44355 13.6668 2.98559 13.996 3.24638 14.4693C3.42453 14.9159 3.39758 15.6375 3.39436 16.7639C2.38008 16.1927 1.90828 15.8786 1.62076 15.3717Z" fill="url(#paint44_linear_542_1923)" stroke="url(#paint45_linear_542_1923)"/>
<path d="M40.5142 15.3717C40.8002 14.7079 40.9046 13.9535 40.6622 13.0771L40.6556 13.0812C39.6915 13.6668 39.1494 13.996 38.8886 14.4693C38.7105 14.9159 38.7374 15.6375 38.7406 16.7639C39.7549 16.1927 40.2267 15.8786 40.5142 15.3717Z" fill="url(#paint46_linear_542_1923)" stroke="url(#paint47_linear_542_1923)"/>
<path d="M1.94075 10.4701C1.83636 9.75486 1.93077 8.99916 2.3917 8.21533L2.39708 8.22096C3.17678 9.03615 3.61514 9.49446 3.74454 10.0191C3.80103 10.4967 3.58824 11.1867 3.29359 12.2739C2.46172 11.4596 2.08727 11.0341 1.94075 10.4701Z" fill="url(#paint48_linear_542_1923)" stroke="url(#paint49_linear_542_1923)"/>
<path d="M40.1944 10.4701C40.2988 9.75486 40.2044 8.99916 39.7434 8.21533L39.7381 8.22096C38.9584 9.03615 38.52 9.49446 38.3906 10.0191C38.3341 10.4967 38.5469 11.1867 38.8415 12.2739C39.6734 11.4596 40.0479 11.0341 40.1944 10.4701Z" fill="url(#paint50_linear_542_1923)" stroke="url(#paint51_linear_542_1923)"/>
<path d="M2.87757 5.72334C2.96185 5.00549 3.24863 4.29997 3.89673 3.66215L3.90047 3.66897C4.44261 4.65819 4.74741 5.21434 4.73662 5.75462C4.66758 6.2305 4.28346 6.84192 3.71746 7.81581C3.1247 6.81395 2.87312 6.30608 2.87757 5.72334Z" fill="url(#paint52_linear_542_1923)" stroke="url(#paint53_linear_542_1923)"/>
<path d="M39.2577 5.72334C39.1734 5.00549 38.8866 4.29997 38.2385 3.66215L38.2348 3.66897C37.6926 4.65819 37.3878 5.21434 37.3986 5.75462C37.4677 6.2305 37.8518 6.84192 38.4178 7.81581C39.0106 6.81395 39.2621 6.30608 39.2577 5.72334Z" fill="url(#paint54_linear_542_1923)" stroke="url(#paint55_linear_542_1923)"/>
<path d="M5.54272 2.97199C5.80992 2.3004 6.26952 1.69315 7.06062 1.2448L7.06247 1.25236C7.33011 2.34819 7.48058 2.96427 7.33032 3.48335C7.14047 3.92515 6.61119 4.41632 5.81242 5.21054C5.49915 4.08939 5.38759 3.53372 5.54272 2.97199Z" fill="url(#paint56_linear_542_1923)" stroke="url(#paint57_linear_542_1923)"/>
<path d="M36.5923 2.97199C36.3251 2.3004 35.8655 1.69315 35.0744 1.2448L35.0725 1.25236C34.8049 2.34819 34.6544 2.96427 34.8047 3.48335C34.9945 3.92515 35.5238 4.41632 36.3226 5.21054C36.6359 4.08939 36.7474 3.53372 36.5923 2.97199Z" fill="url(#paint58_linear_542_1923)" stroke="url(#paint59_linear_542_1923)"/>
<rect x="20.1635" y="27.1548" width="1.80379" height="1.80379" rx="0.901895" fill="url(#paint60_linear_542_1923)"/>
<defs>
<linearGradient id="paint0_linear_542_1923" x1="16.5581" y1="29.8608" x2="16.5581" y2="31.7122" gradientUnits="userSpaceOnUse">
<stop stop-color="#F8FD00"/>
<stop offset="1" stop-color="#EACB7D"/>
</linearGradient>
<linearGradient id="paint1_linear_542_1923" x1="16.5581" y1="29.8608" x2="16.5581" y2="31.7122" gradientUnits="userSpaceOnUse">
<stop stop-color="#F8FD00"/>
<stop offset="1" stop-color="#EACB7D"/>
</linearGradient>
<linearGradient id="paint2_linear_542_1923" x1="25.5769" y1="29.8608" x2="25.5769" y2="31.7122" gradientUnits="userSpaceOnUse">
<stop stop-color="#F8FD00"/>
<stop offset="1" stop-color="#EACB7D"/>
</linearGradient>
<linearGradient id="paint3_linear_542_1923" x1="25.5769" y1="29.8608" x2="25.5769" y2="31.7122" gradientUnits="userSpaceOnUse">
<stop stop-color="#F8FD00"/>
<stop offset="1" stop-color="#EACB7D"/>
</linearGradient>
<linearGradient id="paint4_linear_542_1923" x1="16.2444" y1="26.2066" x2="14.641" y2="27.1323" gradientUnits="userSpaceOnUse">
<stop stop-color="#F8FD00"/>
<stop offset="1" stop-color="#EACB7D"/>
</linearGradient>
<linearGradient id="paint5_linear_542_1923" x1="16.2444" y1="26.2066" x2="14.641" y2="27.1323" gradientUnits="userSpaceOnUse">
<stop stop-color="#F8FD00"/>
<stop offset="1" stop-color="#EACB7D"/>
</linearGradient>
<linearGradient id="paint6_linear_542_1923" x1="25.8905" y1="26.2066" x2="27.4939" y2="27.1323" gradientUnits="userSpaceOnUse">
<stop stop-color="#F8FD00"/>
<stop offset="1" stop-color="#EACB7D"/>
</linearGradient>
<linearGradient id="paint7_linear_542_1923" x1="25.8905" y1="26.2066" x2="27.4939" y2="27.1323" gradientUnits="userSpaceOnUse">
<stop stop-color="#F8FD00"/>
<stop offset="1" stop-color="#EACB7D"/>
</linearGradient>
<linearGradient id="paint8_linear_542_1923" x1="12.3326" y1="24.6056" x2="10.5443" y2="25.0848" gradientUnits="userSpaceOnUse">
<stop stop-color="#F8FD00"/>
<stop offset="1" stop-color="#EACB7D"/>
</linearGradient>
<linearGradient id="paint9_linear_542_1923" x1="12.3326" y1="24.6056" x2="10.5443" y2="25.0848" gradientUnits="userSpaceOnUse">
<stop stop-color="#F8FD00"/>
<stop offset="1" stop-color="#EACB7D"/>
</linearGradient>
<linearGradient id="paint10_linear_542_1923" x1="29.8027" y1="24.6056" x2="31.591" y2="25.0848" gradientUnits="userSpaceOnUse">
<stop stop-color="#F8FD00"/>
<stop offset="1" stop-color="#EACB7D"/>
</linearGradient>
<linearGradient id="paint11_linear_542_1923" x1="29.8027" y1="24.6056" x2="31.591" y2="25.0848" gradientUnits="userSpaceOnUse">
<stop stop-color="#F8FD00"/>
<stop offset="1" stop-color="#EACB7D"/>
</linearGradient>
<linearGradient id="paint12_linear_542_1923" x1="9.16492" y1="21.9692" x2="7.31352" y2="21.9692" gradientUnits="userSpaceOnUse">
<stop stop-color="#F8FD00"/>
<stop offset="1" stop-color="#EACB7D"/>
</linearGradient>
<linearGradient id="paint13_linear_542_1923" x1="9.16492" y1="21.9692" x2="7.31352" y2="21.9692" gradientUnits="userSpaceOnUse">
<stop stop-color="#F8FD00"/>
<stop offset="1" stop-color="#EACB7D"/>
</linearGradient>
<linearGradient id="paint14_linear_542_1923" x1="32.9701" y1="21.9692" x2="34.8215" y2="21.9692" gradientUnits="userSpaceOnUse">
<stop stop-color="#F8FD00"/>
<stop offset="1" stop-color="#EACB7D"/>
</linearGradient>
<linearGradient id="paint15_linear_542_1923" x1="32.9701" y1="21.9692" x2="34.8215" y2="21.9692" gradientUnits="userSpaceOnUse">
<stop stop-color="#F8FD00"/>
<stop offset="1" stop-color="#EACB7D"/>
</linearGradient>
<linearGradient id="paint16_linear_542_1923" x1="7.23931" y1="17.8698" x2="5.451" y2="17.3906" gradientUnits="userSpaceOnUse">
<stop stop-color="#F8FD00"/>
<stop offset="1" stop-color="#EACB7D"/>
</linearGradient>
<linearGradient id="paint17_linear_542_1923" x1="7.23931" y1="17.8698" x2="5.451" y2="17.3906" gradientUnits="userSpaceOnUse">
<stop stop-color="#F8FD00"/>
<stop offset="1" stop-color="#EACB7D"/>
</linearGradient>
<linearGradient id="paint18_linear_542_1923" x1="34.8957" y1="17.8698" x2="36.684" y2="17.3906" gradientUnits="userSpaceOnUse">
<stop stop-color="#F8FD00"/>
<stop offset="1" stop-color="#EACB7D"/>
</linearGradient>
<linearGradient id="paint19_linear_542_1923" x1="34.8957" y1="17.8698" x2="36.684" y2="17.3906" gradientUnits="userSpaceOnUse">
<stop stop-color="#F8FD00"/>
<stop offset="1" stop-color="#EACB7D"/>
</linearGradient>
<linearGradient id="paint20_linear_542_1923" x1="6.3235" y1="13.6041" x2="4.72014" y2="12.6784" gradientUnits="userSpaceOnUse">
<stop stop-color="#F8FD00"/>
<stop offset="1" stop-color="#EACB7D"/>
</linearGradient>
<linearGradient id="paint21_linear_542_1923" x1="6.3235" y1="13.6041" x2="4.72014" y2="12.6784" gradientUnits="userSpaceOnUse">
<stop stop-color="#F8FD00"/>
<stop offset="1" stop-color="#EACB7D"/>
</linearGradient>
<linearGradient id="paint22_linear_542_1923" x1="35.8114" y1="13.6041" x2="37.4147" y2="12.6784" gradientUnits="userSpaceOnUse">
<stop stop-color="#F8FD00"/>
<stop offset="1" stop-color="#EACB7D"/>
</linearGradient>
<linearGradient id="paint23_linear_542_1923" x1="35.8114" y1="13.6041" x2="37.4147" y2="12.6784" gradientUnits="userSpaceOnUse">
<stop stop-color="#F8FD00"/>
<stop offset="1" stop-color="#EACB7D"/>
</linearGradient>
<linearGradient id="paint24_linear_542_1923" x1="6.91617" y1="8.56772" x2="5.60703" y2="7.25858" gradientUnits="userSpaceOnUse">
<stop stop-color="#F8FD00"/>
<stop offset="1" stop-color="#EACB7D"/>
</linearGradient>
<linearGradient id="paint25_linear_542_1923" x1="6.91617" y1="8.56772" x2="5.60703" y2="7.25858" gradientUnits="userSpaceOnUse">
<stop stop-color="#F8FD00"/>
<stop offset="1" stop-color="#EACB7D"/>
</linearGradient>
<linearGradient id="paint26_linear_542_1923" x1="35.2187" y1="8.56772" x2="36.5279" y2="7.25858" gradientUnits="userSpaceOnUse">
<stop stop-color="#F8FD00"/>
<stop offset="1" stop-color="#EACB7D"/>
</linearGradient>
<linearGradient id="paint27_linear_542_1923" x1="35.2187" y1="8.56772" x2="36.5279" y2="7.25858" gradientUnits="userSpaceOnUse">
<stop stop-color="#F8FD00"/>
<stop offset="1" stop-color="#EACB7D"/>
</linearGradient>
<linearGradient id="paint28_linear_542_1923" x1="12.4585" y1="28.5819" x2="11.9794" y2="30.3702" gradientUnits="userSpaceOnUse">
<stop stop-color="#F8FD00"/>
<stop offset="1" stop-color="#EACB7D"/>
</linearGradient>
<linearGradient id="paint29_linear_542_1923" x1="12.4585" y1="28.5819" x2="11.9794" y2="30.3702" gradientUnits="userSpaceOnUse">
<stop stop-color="#F8FD00"/>
<stop offset="1" stop-color="#EACB7D"/>
</linearGradient>
<linearGradient id="paint30_linear_542_1923" x1="29.6764" y1="28.5819" x2="30.1555" y2="30.3702" gradientUnits="userSpaceOnUse">
<stop stop-color="#F8FD00"/>
<stop offset="1" stop-color="#EACB7D"/>
</linearGradient>
<linearGradient id="paint31_linear_542_1923" x1="29.6764" y1="28.5819" x2="30.1555" y2="30.3702" gradientUnits="userSpaceOnUse">
<stop stop-color="#F8FD00"/>
<stop offset="1" stop-color="#EACB7D"/>
</linearGradient>
<linearGradient id="paint32_linear_542_1923" x1="9.0948" y1="26.3657" x2="8.1691" y2="27.9691" gradientUnits="userSpaceOnUse">
<stop stop-color="#F8FD00"/>
<stop offset="1" stop-color="#EACB7D"/>
</linearGradient>
<linearGradient id="paint33_linear_542_1923" x1="9.0948" y1="26.3657" x2="8.1691" y2="27.9691" gradientUnits="userSpaceOnUse">
<stop stop-color="#F8FD00"/>
<stop offset="1" stop-color="#EACB7D"/>
</linearGradient>
<linearGradient id="paint34_linear_542_1923" x1="33.0401" y1="26.3657" x2="33.9658" y2="27.9691" gradientUnits="userSpaceOnUse">
<stop stop-color="#F8FD00"/>
<stop offset="1" stop-color="#EACB7D"/>
</linearGradient>
<linearGradient id="paint35_linear_542_1923" x1="33.0401" y1="26.3657" x2="33.9658" y2="27.9691" gradientUnits="userSpaceOnUse">
<stop stop-color="#F8FD00"/>
<stop offset="1" stop-color="#EACB7D"/>
</linearGradient>
<linearGradient id="paint36_linear_542_1923" x1="6.4498" y1="23.1786" x2="5.14066" y2="24.4877" gradientUnits="userSpaceOnUse">
<stop stop-color="#F8FD00"/>
<stop offset="1" stop-color="#EACB7D"/>
</linearGradient>
<linearGradient id="paint37_linear_542_1923" x1="6.4498" y1="23.1786" x2="5.14066" y2="24.4877" gradientUnits="userSpaceOnUse">
<stop stop-color="#F8FD00"/>
<stop offset="1" stop-color="#EACB7D"/>
</linearGradient>
<linearGradient id="paint38_linear_542_1923" x1="35.6852" y1="23.1786" x2="36.9943" y2="24.4877" gradientUnits="userSpaceOnUse">
<stop stop-color="#F8FD00"/>
<stop offset="1" stop-color="#EACB7D"/>
</linearGradient>
<linearGradient id="paint39_linear_542_1923" x1="35.6852" y1="23.1786" x2="36.9943" y2="24.4877" gradientUnits="userSpaceOnUse">
<stop stop-color="#F8FD00"/>
<stop offset="1" stop-color="#EACB7D"/>
</linearGradient>
<linearGradient id="paint40_linear_542_1923" x1="4.51988" y1="18.9913" x2="2.91652" y2="19.917" gradientUnits="userSpaceOnUse">
<stop stop-color="#F8FD00"/>
<stop offset="1" stop-color="#EACB7D"/>
</linearGradient>
<linearGradient id="paint41_linear_542_1923" x1="4.51988" y1="18.9913" x2="2.91652" y2="19.917" gradientUnits="userSpaceOnUse">
<stop stop-color="#F8FD00"/>
<stop offset="1" stop-color="#EACB7D"/>
</linearGradient>
<linearGradient id="paint42_linear_542_1923" x1="37.6151" y1="18.9913" x2="39.2185" y2="19.917" gradientUnits="userSpaceOnUse">
<stop stop-color="#F8FD00"/>
<stop offset="1" stop-color="#EACB7D"/>
</linearGradient>
<linearGradient id="paint43_linear_542_1923" x1="37.6151" y1="18.9913" x2="39.2185" y2="19.917" gradientUnits="userSpaceOnUse">
<stop stop-color="#F8FD00"/>
<stop offset="1" stop-color="#EACB7D"/>
</linearGradient>
<linearGradient id="paint44_linear_542_1923" x1="3.31354" y1="14.6847" x2="1.52523" y2="15.1639" gradientUnits="userSpaceOnUse">
<stop stop-color="#F8FD00"/>
<stop offset="1" stop-color="#EACB7D"/>
</linearGradient>
<linearGradient id="paint45_linear_542_1923" x1="3.31354" y1="14.6847" x2="1.52523" y2="15.1639" gradientUnits="userSpaceOnUse">
<stop stop-color="#F8FD00"/>
<stop offset="1" stop-color="#EACB7D"/>
</linearGradient>
<linearGradient id="paint46_linear_542_1923" x1="38.8215" y1="14.6847" x2="40.6098" y2="15.1639" gradientUnits="userSpaceOnUse">
<stop stop-color="#F8FD00"/>
<stop offset="1" stop-color="#EACB7D"/>
</linearGradient>
<linearGradient id="paint47_linear_542_1923" x1="38.8215" y1="14.6847" x2="40.6098" y2="15.1639" gradientUnits="userSpaceOnUse">
<stop stop-color="#F8FD00"/>
<stop offset="1" stop-color="#EACB7D"/>
</linearGradient>
<linearGradient id="paint48_linear_542_1923" x1="3.75366" y1="10.2446" x2="1.90226" y2="10.2446" gradientUnits="userSpaceOnUse">
<stop stop-color="#F8FD00"/>
<stop offset="1" stop-color="#EACB7D"/>
</linearGradient>
<linearGradient id="paint49_linear_542_1923" x1="3.75366" y1="10.2446" x2="1.90226" y2="10.2446" gradientUnits="userSpaceOnUse">
<stop stop-color="#F8FD00"/>
<stop offset="1" stop-color="#EACB7D"/>
</linearGradient>
<linearGradient id="paint50_linear_542_1923" x1="38.3815" y1="10.2446" x2="40.2329" y2="10.2446" gradientUnits="userSpaceOnUse">
<stop stop-color="#F8FD00"/>
<stop offset="1" stop-color="#EACB7D"/>
</linearGradient>
<linearGradient id="paint51_linear_542_1923" x1="38.3815" y1="10.2446" x2="40.2329" y2="10.2446" gradientUnits="userSpaceOnUse">
<stop stop-color="#F8FD00"/>
<stop offset="1" stop-color="#EACB7D"/>
</linearGradient>
<linearGradient id="paint52_linear_542_1923" x1="4.68707" y1="5.97477" x2="2.89875" y2="5.49559" gradientUnits="userSpaceOnUse">
<stop stop-color="#F8FD00"/>
<stop offset="1" stop-color="#EACB7D"/>
</linearGradient>
<linearGradient id="paint53_linear_542_1923" x1="4.68707" y1="5.97477" x2="2.89875" y2="5.49559" gradientUnits="userSpaceOnUse">
<stop stop-color="#F8FD00"/>
<stop offset="1" stop-color="#EACB7D"/>
</linearGradient>
<linearGradient id="paint54_linear_542_1923" x1="37.4482" y1="5.97477" x2="39.2365" y2="5.49559" gradientUnits="userSpaceOnUse">
<stop stop-color="#F8FD00"/>
<stop offset="1" stop-color="#EACB7D"/>
</linearGradient>
<linearGradient id="paint55_linear_542_1923" x1="37.4482" y1="5.97477" x2="39.2365" y2="5.49559" gradientUnits="userSpaceOnUse">
<stop stop-color="#F8FD00"/>
<stop offset="1" stop-color="#EACB7D"/>
</linearGradient>
<linearGradient id="paint56_linear_542_1923" x1="7.22548" y1="3.68318" x2="5.62212" y2="2.75747" gradientUnits="userSpaceOnUse">
<stop stop-color="#F8FD00"/>
<stop offset="1" stop-color="#EACB7D"/>
</linearGradient>
<linearGradient id="paint57_linear_542_1923" x1="7.22548" y1="3.68318" x2="5.62212" y2="2.75747" gradientUnits="userSpaceOnUse">
<stop stop-color="#F8FD00"/>
<stop offset="1" stop-color="#EACB7D"/>
</linearGradient>
<linearGradient id="paint58_linear_542_1923" x1="34.9095" y1="3.68318" x2="36.5129" y2="2.75747" gradientUnits="userSpaceOnUse">
<stop stop-color="#F8FD00"/>
<stop offset="1" stop-color="#EACB7D"/>
</linearGradient>
<linearGradient id="paint59_linear_542_1923" x1="34.9095" y1="3.68318" x2="36.5129" y2="2.75747" gradientUnits="userSpaceOnUse">
<stop stop-color="#F8FD00"/>
<stop offset="1" stop-color="#EACB7D"/>
</linearGradient>
<linearGradient id="paint60_linear_542_1923" x1="21.0653" y1="27.1548" x2="21.0653" y2="28.9586" gradientUnits="userSpaceOnUse">
<stop stop-color="#F8FD00"/>
<stop offset="1" stop-color="#EACB7D"/>
</linearGradient>
</defs>
</svg>
